<svg width="20" height="19" viewBox="0 0 20 19" fill="none" xmlns="http://www.w3.org/2000/svg">
<path d="M15.8773 0.50048C15.0448 0.50048 14.2623 0.82431 13.6741 1.41218L13.5139 1.57206L12.9668 1.02561C12.2964 0.356306 11.2063 0.356146 10.5364 1.02561L9.64004 1.92085C9.59784 1.96306 9.57415 2.02017 9.57415 2.07994C9.57415 2.13971 9.59784 2.19683 9.64004 2.23903L13.21 5.80491C13.254 5.84868 13.3115 5.87065 13.3691 5.87065C13.4267 5.87065 13.4843 5.84868 13.5282 5.80491L14.4245 4.90967C14.749 4.58537 14.9277 4.15421 14.9277 3.69561C14.9277 3.23701 14.7488 2.80588 14.4245 2.48154L13.8322 1.88991L13.992 1.73051C14.4954 1.22736 15.1651 0.95026 15.8773 0.95026C17.3479 0.95026 18.5442 2.14501 18.5442 3.61356V8.58678H14.8208C14.6711 8.16473 14.2717 7.85987 13.7986 7.85987H11.2622C10.7891 7.85987 10.3897 8.16488 10.24 8.58678H1.22499C1.10073 8.58678 1 8.6875 1 8.81177V11.4035C1 13.9058 2.82529 15.9891 5.21531 16.3976L4.61456 18.1979C4.57518 18.3158 4.63872 18.4432 4.75671 18.4825C4.78024 18.4904 4.8044 18.4942 4.82794 18.4942C4.92223 18.4942 5.00977 18.4345 5.04116 18.3402L5.67046 16.4541C5.80366 16.4646 5.93781 16.4715 6.07368 16.4715H13.9195C14.0554 16.4715 14.1895 16.4646 14.3227 16.4541L14.952 18.3402C14.9834 18.4345 15.0711 18.4942 15.1652 18.4942C15.1888 18.4942 15.2129 18.4904 15.2365 18.4825C15.3544 18.4432 15.4178 18.3158 15.3786 18.1979L14.7779 16.3976C17.1683 15.9887 18.9936 13.9056 18.9936 11.4031V3.6131C18.9936 1.89653 17.5955 0.5 15.8768 0.5L15.8773 0.50048ZM14.4778 3.69564C14.4778 4.03406 14.346 4.35209 14.1065 4.59135L13.3691 5.32782L10.1173 2.07996L10.8544 1.34382C11.3491 0.84959 12.1541 0.84959 12.6488 1.34382L13.3542 2.04843C13.3543 2.04859 13.3543 2.04875 13.3545 2.0489C13.3546 2.04906 13.3548 2.04906 13.355 2.04922L14.1065 2.79982C14.3461 3.03924 14.4779 3.35727 14.4779 3.6957L14.4778 3.69564ZM10.6236 8.9472C10.6236 8.59575 10.9101 8.30974 11.2621 8.30974H13.7986C14.1507 8.30974 14.4371 8.59576 14.4371 8.9472V12.9918H10.6235L10.6236 8.9472ZM18.5441 11.4034C18.5441 13.9501 16.4697 16.0219 13.9199 16.0219H6.07409C3.52442 16.0219 1.44991 13.9501 1.44991 11.4034V9.03661H10.1737V13.2166C10.1737 13.3408 10.2743 13.4416 10.3987 13.4416H14.6622C14.7865 13.4416 14.8872 13.3408 14.8872 13.2166V9.03661H18.5444L18.5441 11.4034Z" fill="#222222" stroke="#222222" stroke-width="0.6"/>
</svg>
