<svg width="20" height="19" viewBox="0 0 20 19" fill="none" xmlns="http://www.w3.org/2000/svg">
<path d="M18.855 0.517129C18.7709 0.482294 18.6743 0.501589 18.61 0.565919L1.06592 18.1099C1.00159 18.1743 0.982295 18.2709 1.01713 18.355C1.0518 18.4391 1.13401 18.4939 1.22501 18.4939H18.769C18.8933 18.4939 18.994 18.3931 18.994 18.2689L18.9939 0.724849C18.9939 0.633849 18.9391 0.551799 18.855 0.516969V0.517129ZM18.5441 18.0443H1.76798L4.29616 15.5161L4.76496 15.9896C4.80905 16.034 4.86695 16.0563 4.92484 16.0563C4.98195 16.0563 5.03922 16.0346 5.08299 15.9912C5.17132 15.9038 5.17211 15.7615 5.08471 15.6732L4.61434 15.1981L5.96754 13.8449L6.42803 14.3101C6.47212 14.3545 6.53001 14.3768 6.58791 14.3768C6.64502 14.3768 6.70228 14.3551 6.74606 14.3117C6.83439 14.2243 6.83517 14.082 6.74778 13.9936L6.28556 13.5269L7.63876 12.1737L8.0911 12.6305C8.13519 12.675 8.19308 12.6972 8.25097 12.6972C8.30808 12.6972 8.36535 12.6756 8.40912 12.6321C8.49745 12.5447 8.49824 12.4024 8.41085 12.3141L7.95678 11.8555L9.30998 10.5023L9.75416 10.951C9.79825 10.9954 9.85615 11.0177 9.91404 11.0177C9.97115 11.0177 10.0284 10.996 10.0722 10.9526C10.1605 10.8652 10.1613 10.7229 10.0739 10.6346L9.628 10.1843L10.9811 8.8312L11.4172 9.27144C11.4613 9.31585 11.5192 9.33813 11.5771 9.33813C11.6342 9.33813 11.6915 9.31647 11.7354 9.27302C11.8234 9.18562 11.8244 9.04316 11.737 8.95499L11.2993 8.51301L12.6525 7.15982L13.0801 7.59175C13.1242 7.63615 13.1821 7.65843 13.24 7.65843C13.2971 7.65843 13.3544 7.63678 13.3982 7.59332C13.4865 7.50593 13.4873 7.36363 13.3999 7.2753L12.9705 6.84164L14.3237 5.48844L14.7432 5.91222C14.7873 5.95662 14.8452 5.9789 14.9031 5.9789C14.9602 5.9789 15.0175 5.95725 15.0612 5.91379C15.1496 5.8264 15.1503 5.6841 15.063 5.59577L14.6417 5.17042L15.9949 3.81722L16.4063 4.23269C16.4504 4.27709 16.5083 4.29937 16.5661 4.29937C16.6233 4.29937 16.6805 4.27772 16.7243 4.23426C16.8126 4.14687 16.8134 4.00456 16.726 3.91623L16.3131 3.4992L18.5441 1.26816V18.0443Z" fill="#222222" stroke="#222222" stroke-width="0.6"/>
</svg>
